<?xml version="1.0" standalone="no"?>
<!DOCTYPE svg PUBLIC "-//W3C//DTD SVG 20010904//EN"
 "http://www.w3.org/TR/2001/REC-SVG-20010904/DTD/svg10.dtd">
<svg version="1.0" xmlns="http://www.w3.org/2000/svg"
 width="260.000000pt" height="260.000000pt" viewBox="0 0 260.000000 260.000000"
 preserveAspectRatio="xMidYMid meet">
<metadata>
Created by potrace 1.14, written by Peter Selinger 2001-2017
</metadata>
<g transform="translate(0.000000,260.000000) scale(0.100000,-0.100000)"
fill="#000000" stroke="none">
<path d="M573 2002 l-63 -3 0 -634 0 -635 303 0 c166 0 320 5 342 10 22 5 51
11 65 14 81 17 207 85 279 152 l25 23 175 -89 c96 -50 178 -90 183 -90 7 0 95
57 108 70 3 3 32 23 65 45 33 22 62 42 65 45 3 3 38 27 78 54 39 27 72 52 73
55 0 3 2 15 4 26 2 11 7 40 10 65 8 64 26 191 31 220 2 14 7 48 10 75 4 28 12
85 18 127 l13 78 -96 29 c-53 17 -136 42 -186 56 -49 15 -112 33 -140 41 -27
8 -54 16 -60 17 -5 2 -16 6 -22 10 -7 5 -13 6 -13 2 0 -3 -8 -2 -17 4 -13 6
-46 -1 -118 -29 l-100 -37 -29 41 c-32 44 -83 95 -131 131 -39 29 -125 76
-125 69 0 -4 -6 -2 -13 4 -21 18 -126 42 -207 48 -85 7 -433 11 -527 6z m554
-346 c29 -8 67 -23 86 -35 40 -25 97 -85 97 -104 0 -7 4 -17 9 -22 25 -25 33
-194 10 -221 -6 -8 -9 -14 -5 -14 4 0 -1 -15 -10 -32 -64 -124 -147 -165 -340
-167 l-119 -2 1 303 c1 167 2 304 3 306 4 9 226 -1 268 -12z"/>
</g>
</svg>
